<mxfile host="app.diagrams.net" modified="2023-04-04T12:57:27.271Z" agent="Mozilla/5.0 (Windows NT 10.0; Win64; x64) AppleWebKit/537.36 (KHTML, like Gecko) Chrome/111.0.0.0 Safari/537.36" etag="8-u8Sk3v5CcZctvi6Z0s" version="21.1.4" type="github">
  <diagram name="Page-1" id="GQdguLyDqn1J5aYRIGRp">
    <mxGraphModel dx="1050" dy="549" grid="1" gridSize="10" guides="1" tooltips="1" connect="1" arrows="1" fold="1" page="1" pageScale="1" pageWidth="827" pageHeight="1169" math="0" shadow="0">
      <root>
        <mxCell id="0" />
        <mxCell id="1" parent="0" />
        <mxCell id="ac-CJ9rbDyMM8MRPhUsu-1" value="Topic A" style="strokeWidth=2;html=1;shape=mxgraph.flowchart.direct_data;whiteSpace=wrap;" vertex="1" parent="1">
          <mxGeometry x="254" y="130" width="100" height="40" as="geometry" />
        </mxCell>
        <mxCell id="ac-CJ9rbDyMM8MRPhUsu-2" value="Topic B" style="strokeWidth=2;html=1;shape=mxgraph.flowchart.direct_data;whiteSpace=wrap;" vertex="1" parent="1">
          <mxGeometry x="474" y="130" width="100" height="40" as="geometry" />
        </mxCell>
        <mxCell id="ac-CJ9rbDyMM8MRPhUsu-3" value="Merged" style="rounded=1;whiteSpace=wrap;html=1;absoluteArcSize=1;arcSize=14;strokeWidth=2;" vertex="1" parent="1">
          <mxGeometry x="344" y="220" width="140" height="50" as="geometry" />
        </mxCell>
        <mxCell id="ac-CJ9rbDyMM8MRPhUsu-4" value="Filter" style="rounded=1;whiteSpace=wrap;html=1;absoluteArcSize=1;arcSize=14;strokeWidth=2;" vertex="1" parent="1">
          <mxGeometry x="344" y="380" width="140" height="50" as="geometry" />
        </mxCell>
        <mxCell id="ac-CJ9rbDyMM8MRPhUsu-5" value="Aggregated (tuple)" style="rounded=1;whiteSpace=wrap;html=1;absoluteArcSize=1;arcSize=14;strokeWidth=2;" vertex="1" parent="1">
          <mxGeometry x="344" y="300" width="140" height="50" as="geometry" />
        </mxCell>
        <mxCell id="ac-CJ9rbDyMM8MRPhUsu-6" value="Condition" style="strokeWidth=2;html=1;shape=mxgraph.flowchart.decision;whiteSpace=wrap;" vertex="1" parent="1">
          <mxGeometry x="334" y="470" width="156" height="70" as="geometry" />
        </mxCell>
        <mxCell id="ac-CJ9rbDyMM8MRPhUsu-7" value="Map" style="rounded=1;whiteSpace=wrap;html=1;absoluteArcSize=1;arcSize=14;strokeWidth=2;" vertex="1" parent="1">
          <mxGeometry x="344" y="600" width="140" height="50" as="geometry" />
        </mxCell>
        <mxCell id="ac-CJ9rbDyMM8MRPhUsu-8" value="(Values A, Null)" style="rounded=1;whiteSpace=wrap;html=1;absoluteArcSize=1;arcSize=14;strokeWidth=2;" vertex="1" parent="1">
          <mxGeometry x="80" y="300" width="140" height="50" as="geometry" />
        </mxCell>
        <mxCell id="ac-CJ9rbDyMM8MRPhUsu-9" value="(Values A, Values B)" style="rounded=1;whiteSpace=wrap;html=1;absoluteArcSize=1;arcSize=14;strokeWidth=2;" vertex="1" parent="1">
          <mxGeometry x="80" y="360" width="140" height="50" as="geometry" />
        </mxCell>
      </root>
    </mxGraphModel>
  </diagram>
</mxfile>
